<?xml version="1.0" encoding="UTF-8" standalone="no"?>
<!DOCTYPE svg PUBLIC "-//W3C//DTD SVG 1.1//EN" "http://www.w3.org/Graphics/SVG/1.1/DTD/svg11.dtd">
<svg width="100%" height="100%" viewBox="0 0 27 28" version="1.1" xmlns="http://www.w3.org/2000/svg" xmlns:xlink="http://www.w3.org/1999/xlink" xml:space="preserve" xmlns:serif="http://www.serif.com/" style="fill-rule:evenodd;clip-rule:evenodd;stroke-linejoin:round;stroke-miterlimit:1.41421;">
    <g id="_x34__4_">
        <path d="M24.021,25.473C23.763,25.473 23.521,25.373 23.335,25.194L17.731,19.677C16.055,20.951 13.979,21.651 11.859,21.651C6.564,21.651 2.255,17.411 2.255,12.194C2.255,6.981 6.564,2.739 11.859,2.739C17.156,2.739 21.463,6.98 21.463,12.194C21.463,14.456 20.639,16.633 19.135,18.354L24.701,23.835C24.887,24.018 24.984,24.258 24.984,24.516C24.984,24.772 24.882,25.014 24.701,25.194C24.523,25.373 24.279,25.473 24.021,25.473ZM11.863,4.655C7.636,4.655 4.199,8.037 4.199,12.194C4.199,16.352 7.637,19.735 11.863,19.735C16.089,19.735 19.53,16.352 19.53,12.194C19.529,8.037 16.09,4.655 11.863,4.655Z" style="fill:white;fill-rule:nonzero;"/>
        <path d="M24.531,24.014L18.791,18.368C20.294,16.733 21.217,14.575 21.217,12.198C21.217,7.115 17.029,2.993 11.863,2.993C6.697,2.993 2.509,7.114 2.509,12.198C2.509,17.282 6.697,21.405 11.863,21.405C14.096,21.405 16.143,20.634 17.751,19.35L23.514,25.02C23.794,25.295 24.25,25.295 24.534,25.02C24.814,24.74 24.812,24.29 24.531,24.014ZM11.863,19.984C7.492,19.984 3.949,16.496 3.949,12.192C3.949,7.891 7.492,4.403 11.863,4.403C16.235,4.403 19.78,7.89 19.78,12.192C19.779,16.496 16.234,19.984 11.863,19.984Z" style="fill:white;fill-rule:nonzero;"/>
    </g>
</svg>
